<svg width="512" height="512" viewBox="0 0 512 512" fill="none" xmlns="http://www.w3.org/2000/svg">
  <rect width="512" height="512" rx="100" fill="#1a1a2e"/>
  
  <!-- Sun Rays -->
  <g stroke="#ffaa00" stroke-width="24" stroke-linecap="round">
    <line x1="256" y1="80" x2="256" y2="40"/>
    <line x1="256" y1="472" x2="256" y2="432"/>
    <line x1="80" y1="256" x2="40" y2="256"/>
    <line x1="472" y1="256" x2="432" y2="256"/>
    <line x1="131.6" y1="131.6" x2="103.3" y2="103.3"/>
    <line x1="408.7" y1="408.7" x2="380.4" y2="380.4"/>
    <line x1="131.6" y1="380.4" x2="103.3" y2="408.7"/>
    <line x1="408.7" y1="103.3" x2="380.4" y2="131.6"/>
  </g>

  <!-- Sun Circle -->
  <circle cx="256" cy="256" r="110" fill="#ffaa00"/>
  
  <!-- Moon Crescent -->
  <path d="M340 256C340 302.392 302.392 340 256 340C209.608 340 172 302.392 172 256C172 209.608 209.608 172 256 172C278.196 172 298.392 180.596 313.431 194.569C285 190 250 205 250 256C250 307 285 322 313.431 317.431C298.392 331.404 278.196 340 256 340" fill="#1a1a2e" opacity="0.4"/>
  <path d="M370 256C370 319.049 318.847 370 255.698 370C192.549 370 141.395 318.847 141.395 255.698C141.395 192.549 192.549 141.395 255.698 141.395C286.049 141.395 313.541 153.195 334.004 172.502C295 166 248 186 248 256C248 326 295 346 334.004 339.498C313.541 358.805 286.049 370.598 255.698 370.598" fill="white"/>
</svg>
